<?xml version="1.0" encoding="UTF-8"?>
<svg width="100" height="100" version="1.1" viewBox="0 0 26.458 26.458" xmlns="http://www.w3.org/2000/svg" xmlns:cc="http://creativecommons.org/ns#" xmlns:dc="http://purl.org/dc/elements/1.1/" xmlns:rdf="http://www.w3.org/1999/02/22-rdf-syntax-ns#">
 <defs>
  <clipPath id="clipPath2246-6">
   <path d="m324.38 109.91a161.26 161.26 0 0 1-148.71 168.05 161.26 161.26 0 0 1-172.69-143.3 161.26 161.26 0 0 1 137.74-177.15 161.26 161.26 0 0 1 181.44 132.04z" fill="#fd9f01" style="paint-order:stroke fill markers"/>
  </clipPath>
  <linearGradient id="linearGradient2808" x1="16.005" x2="-1178.4" y1="875.59" y2="875.59" gradientTransform="matrix(.76654 0 0 .76654 481.16 -387.97)" gradientUnits="userSpaceOnUse">
   <stop stop-color="#ffad00" offset="0"/>
   <stop stop-color="#ffad00" stop-opacity="0" offset="1"/>
  </linearGradient>
  <linearGradient id="linearGradient10402" x1="-526.93" x2="-454.48" y1="676.25" y2="946.61" gradientTransform="matrix(1.3309,0,0,1.3309,816.26,-936.76)" gradientUnits="userSpaceOnUse">
   <stop stop-color="#fe5000" offset="0"/>
   <stop stop-color="#ff6900" stop-opacity="0" offset="1"/>
  </linearGradient>
  <linearGradient id="linearGradient2810" x1="-228.3" x2="-48.759" y1="624.42" y2="447.9" gradientTransform="matrix(1.7396,0,0,1.7396,706.98,-881.14)" gradientUnits="userSpaceOnUse">
   <stop stop-color="#ffad00" offset="0"/>
   <stop stop-color="#fe5000" stop-opacity="0" offset="1"/>
  </linearGradient>
 </defs>
 <metadata>
  <rdf:RDF>
   <cc:Work rdf:about="">
    <dc:format>image/svg+xml</dc:format>
    <dc:type rdf:resource="http://purl.org/dc/dcmitype/StillImage"/>
    <dc:title/>
   </cc:Work>
  </rdf:RDF>
 </metadata>
 <g transform="translate(-3.7535 -139.88)">
  <g transform="matrix(.6199 0 0 .6199 138.99 348.22)">
   <g transform="matrix(.13234 0 0 .13234 -218.42 -330.25)" clip-path="url(#clipPath2246-6)">
    <path d="m-122.59-110.08h588.92v458.91h-588.92z" fill="#ff6900" style="paint-order:stroke fill markers"/>
    <path d="m274.14 330.44 266.35 295.67c25.169 27.94 68.223 30.185 96.162 5.0156 23.881-21.514 29.465-56.798 13.394-84.634l-252.15-436.73c-105.98-183.56-340.69-246.45-524.25-140.47l-436.73 252.15c-32.567 18.803-43.725 60.445-24.923 93.012 16.071 27.836 49.42 40.642 79.991 30.717l378.5-122.88c144.1-46.781 302.23-4.4082 403.63 108.15z" fill="url(#linearGradient2808)" style="paint-order:stroke fill markers"/>
    <path d="m433.24 131a270.34 270.34 0 0 1-249.31 281.72 270.34 270.34 0 0 1-289.5-240.23 270.34 270.34 0 0 1 230.91-296.99 270.34 270.34 0 0 1 304.18 221.36z" fill="url(#linearGradient10402)" style="paint-order:stroke fill markers"/>
    <path d="m722.49 52.351a266.95 266.95 0 0 1-246.19 278.19 266.95 266.95 0 0 1-285.88-237.22 266.95 266.95 0 0 1 228.02-293.27 266.95 266.95 0 0 1 300.37 218.59z" fill="url(#linearGradient2810)" style="paint-order:stroke fill markers"/>
   </g>
   <path d="m-189.33-317.46 2.8457-4.3843c0.26891-0.41431 0.15103-0.96816-0.26327-1.2371-0.35413-0.22984-0.82076-0.18074-1.1193 0.11779l-4.6836 4.6836c-1.9686 1.9686-1.9686 5.1602 0 7.1287l4.6836 4.6836c0.34926 0.34927 0.91551 0.34927 1.2648 0 0.29853-0.29851 0.34763-0.76515 0.11779-1.1193l-2.8457-4.3843c-1.0834-1.6691-1.0834-3.8195 0-5.4886zm2.1546 2.8033c0 1.392 1.1284 2.5204 2.5204 2.5204s2.5204-1.1284 2.5204-2.5204-1.1284-2.5204-2.5204-2.5204-2.5204 1.1284-2.5204 2.5204zm-11.192 7.9105 2.3742 4.6566c0.22435 0.44003 0.76294 0.61487 1.203 0.39053 0.37612-0.19176 0.56691-0.62042 0.45764-1.0282l-1.7143-6.398c-0.72053-2.6891-3.4846-4.2849-6.1737-3.5643l-6.398 1.7143c-0.4771 0.12782-0.76022 0.61822-0.63238 1.0953 0.10927 0.40778 0.48883 0.68362 0.91042 0.66162l5.2198-0.27224c1.9872-0.10362 3.8494 0.97152 4.7533 2.7444zm-3.505 0.46432c-1.2055-0.69597-2.7469-0.28294-3.4428 0.92254-0.69598 1.2054-0.28297 2.7469 0.92252 3.4428 1.2055 0.69597 2.7469 0.28295 3.4428-0.92252 0.69598-1.2055 0.28296-2.7469-0.92252-3.4428zm-1.2545-13.648-5.2199-0.27222c-0.49325-0.0257-0.91396 0.35327-0.93968 0.84652-0.022 0.42161 0.25384 0.80116 0.66164 0.91044l6.398 1.7143c2.6891 0.72052 5.4531-0.87528 6.1736-3.5643l1.7143-6.398c0.12783-0.47708-0.1553-0.96749-0.63239-1.0953-0.40778-0.10927-0.83645 0.0815-1.0282 0.45763l-2.3742 4.6566c-0.90385 1.7728-2.7661 2.848-4.7533 2.7444zm1.3504-3.2677c1.2055-0.69598 1.6186-2.2375 0.92253-3.4428-0.69604-1.2054-2.2375-1.6185-3.4428-0.92251-1.2055 0.69597-1.6186 2.2374-0.92252 3.4428s2.2375 1.6186 3.4428 0.92252z" fill="#fff" style="paint-order:stroke fill markers"/>
  </g>
 </g>
</svg>
