<?xml version="1.0" encoding="UTF-8"?>
<svg width="197.55mm" height="28.684mm" version="1.1" viewBox="0 0 197.55 28.684" xmlns="http://www.w3.org/2000/svg" xmlns:cc="http://creativecommons.org/ns#" xmlns:dc="http://purl.org/dc/elements/1.1/" xmlns:rdf="http://www.w3.org/1999/02/22-rdf-syntax-ns#">
 <metadata>
  <rdf:RDF>
   <cc:Work rdf:about="">
    <dc:format>image/svg+xml</dc:format>
    <dc:type rdf:resource="http://purl.org/dc/dcmitype/StillImage"/>
    <dc:title/>
   </cc:Work>
  </rdf:RDF>
 </metadata>
 <g transform="translate(-10.278 -142.65)" fill="#fff">
  <g stroke-linecap="round" stroke-width="3.9877" style="paint-order:stroke fill markers" aria-label="pet informática">
   <path d="m59.239 151.22q1.5388 0 2.7608 0.79203 1.222 0.7694 1.9009 2.1724 0.70152 1.3804 0.70152 3.1455t-0.70152 3.1681q-0.67888 1.403-1.9009 2.1951-1.222 0.76941-2.7608 0.76941-1.1994 0-2.2177-0.49785-1.0183-0.52048-1.7198-1.4257v5.5442h-3.3039v-15.592h3.3039v1.652q0.70151-0.90518 1.7198-1.403 1.0183-0.52048 2.2177-0.52048zm-0.95044 9.4591q1.3578 0 2.2177-0.92781 0.88255-0.95044 0.88255-2.4214 0-1.4483-0.88255-2.3761-0.85992-0.95043-2.2177-0.95043-1.3125 0-2.1498 0.9278-0.83729 0.92781-0.83729 2.3987t0.83729 2.4214q0.83729 0.92781 2.1498 0.92781z"/>
   <path d="m72.002 160.91q0.79203 0 1.6293-0.31681 0.83729-0.31681 1.403-0.83729l1.8556 1.9009q-0.7694 0.81466-2.1272 1.3125-1.3351 0.49785-2.6477 0.49785-1.7198 0-3.1681-0.79204-1.4257-0.79203-2.263-2.1951-0.83729-1.403-0.83729-3.1681 0-1.7425 0.79203-3.1229 0.81466-1.3804 2.1951-2.1724 1.403-0.79203 3.1002-0.79203 1.8104 0 3.1455 0.83729 1.3351 0.83729 2.0367 2.4214 0.70152 1.5841 0.70152 3.7339h-8.8255q0.2263 1.222 1.0183 1.9688 0.81466 0.72414 1.9914 0.72414zm-0.04526-7.1283q-1.0862 0-1.8782 0.67889-0.79203 0.65625-1.0636 1.7877h5.6347q-0.20367-1.1315-0.90518-1.7877-0.70152-0.67889-1.7877-0.67889z"/>
   <path d="m86.236 162.45q-0.52048 0.45259-1.2446 0.74677-0.72414 0.27156-1.4257 0.27156-1.5614 0-2.5571-0.9957-0.97307-0.9957-0.97307-2.5798v-5.7253h-1.6067v-2.6703h1.6067v-3.2134h3.1908v3.2134h2.5345v2.6703h-2.5345v5.2048q0 0.56573 0.31681 0.95044 0.31681 0.36207 0.79203 0.36207 0.33944 0 0.63363-0.0905 0.29418-0.11315 0.47522-0.29418z"/>
   <path d="m94.27 151.49h2.2177v11.699h-2.2177zm1.1088-1.9461q-0.56574 0-0.97307-0.40733-0.3847-0.40733-0.3847-0.95044 0-0.5431 0.3847-0.92781 0.40733-0.40733 0.97307-0.40733 0.54311 0 0.92781 0.40733 0.40733 0.38471 0.40733 0.92781 0 0.54311-0.40733 0.95044-0.3847 0.40733-0.92781 0.40733z"/>
   <path d="m105.04 151.22q1.2672 0 2.263 0.56573 0.9957 0.56574 1.5388 1.6067 0.56574 1.0183 0.56574 2.3535v7.4451h-2.1951v-7.0604q0-1.3125-0.74677-2.1272-0.74677-0.8373-1.9461-0.8373-0.88255 0-1.6293 0.38471-0.74677 0.36207-1.1767 0.99569-0.42996 0.63363-0.42996 1.3804v7.2641h-2.2177v-11.699h2.2177v1.7198q0.52047-0.90518 1.5388-1.4483 1.0183-0.5431 2.2177-0.5431z"/>
   <path d="m114.93 151.49h2.7608v1.9009h-2.7608v9.7986h-2.1951v-9.7986h-1.7425v-1.9009h1.7425v-1.403q0-1.403 0.85993-2.2856 0.85992-0.90518 2.2177-0.90518 0.63362 0 1.2446 0.2263 0.63362 0.22629 1.1088 0.61099l-0.83729 1.4936q-0.18103-0.18104-0.49785-0.29418-0.31681-0.13578-0.67888-0.13578-0.49785 0-0.85992 0.40733-0.36207 0.3847-0.36207 0.9957z"/>
   <path d="m124.64 163.46q-1.6746 0-3.1002-0.81467-1.403-0.83729-2.2403-2.2403-0.81466-1.4256-0.81466-3.0776 0-1.652 0.81466-3.055 0.83729-1.403 2.2403-2.2177 1.4257-0.83729 3.1002-0.83729 1.652 0 3.055 0.83729 1.4257 0.81466 2.2403 2.2177 0.8373 1.403 0.8373 3.055 0 1.652-0.8373 3.0776-0.81466 1.403-2.2403 2.2403-1.403 0.81467-3.055 0.81467zm0-1.9461q1.041 0 1.9235-0.56574 0.90518-0.56574 1.4257-1.5162 0.54311-0.97307 0.54311-2.1046 0-1.1315-0.54311-2.0819-0.52048-0.97307-1.4257-1.5162-0.88255-0.56574-1.9235-0.56574-1.0636 0-1.9688 0.56574-0.90518 0.54311-1.4483 1.5162-0.52048 0.95044-0.52048 2.0819 0 1.1315 0.52048 2.1046 0.54311 0.95043 1.4483 1.5162t1.9688 0.56574z"/>
   <path d="m135 153.78q0.5431-1.1767 1.6972-1.8556 1.1541-0.70151 2.6703-0.70151v1.9461q-1.2672 0-2.263 0.47522t-1.5614 1.3578q-0.5431 0.85992-0.5431 1.9688v6.2231h-2.2177v-11.699h2.2177z"/>
   <path d="m154.35 151.22q1.1994 0 2.1724 0.58836 0.97307 0.56574 1.5162 1.6067 0.54311 1.0183 0.54311 2.3308v7.4451h-2.1951v-7.1057q0-1.2899-0.70152-2.1045-0.67888-0.81467-1.7877-0.81467-1.2672 0-2.0593 0.76941-0.79204 0.74677-0.79204 1.9461v7.3093h-2.1951v-7.1057q0-1.2899-0.70151-2.1045-0.67889-0.81467-1.7877-0.81467-1.2673 0-2.0819 0.76941-0.79203 0.74677-0.79203 1.9461v7.3093h-2.2177v-11.699h2.2177v1.6746q0.45259-0.90518 1.3125-1.4256 0.88255-0.52048 2.014-0.52048 1.1315 0 2.0593 0.52048 0.92781 0.52047 1.4936 1.4256 0.61099-0.90518 1.652-1.4256 1.0636-0.52048 2.3308-0.52048z"/>
   <path d="m165.87 151.22q2.3082 0 3.5981 1.3351t1.2899 3.5528v7.083h-2.1951v-1.5841q-0.63363 0.88255-1.6972 1.3804-1.0636 0.47522-2.1951 0.47522-1.8782 0-3.1002-1.0183-1.222-1.0183-1.222-2.7155 0-1.1315 0.611-2.014 0.63362-0.90518 1.6972-1.3804 1.0862-0.49785 2.3761-0.49785 1.6746 0 3.5302 0.63363v-0.36207q0-1.2899-0.70151-2.1498-0.70152-0.88255-2.3082-0.88255-1.3804 0-3.2813 0.97306l-0.83729-1.652q2.3535-1.1767 4.4354-1.1767zm-0.74677 10.477q1.1767 0 2.1724-0.56574 0.9957-0.58837 1.2672-1.6067v-1.5614q-1.4936-0.45259-3.1908-0.45259-1.1994 0-2.0366 0.61099-0.8373 0.611-0.8373 1.5388t0.72415 1.4936q0.74677 0.54311 1.9009 0.54311zm2.9871-14.89 2.1724 0.45259-3.2586 2.8966h-1.6293z"/>
   <path d="m179.49 162.63q-0.47521 0.38471-1.0862 0.611-0.611 0.2263-1.2446 0.2263-1.3578 0-2.2177-0.88255-0.85993-0.90518-0.85993-2.3082v-6.8794h-1.7651v-1.9009h1.7651v-3.2134h2.1951v3.2134h2.7608v1.9009h-2.7608v6.721q0 0.611 0.33944 1.0183 0.36207 0.3847 0.85992 0.3847 0.36207 0 0.67888-0.11315 0.33945-0.13578 0.52048-0.31681z"/>
   <path d="m181.42 151.49h2.2177v11.699h-2.2177zm1.1088-1.9461q-0.56573 0-0.97306-0.40733-0.38471-0.40733-0.38471-0.95044 0-0.5431 0.38471-0.92781 0.40733-0.40733 0.97306-0.40733 0.54311 0 0.92781 0.40733 0.40734 0.38471 0.40734 0.92781 0 0.54311-0.40734 0.95044-0.3847 0.40733-0.92781 0.40733z"/>
   <path d="m191.8 163.46q-1.6293 0-3.055-0.8373-1.4257-0.83729-2.263-2.2403-0.83729-1.4256-0.83729-3.055 0-1.6293 0.83729-3.0324 0.85992-1.403 2.263-2.2403 1.4257-0.83729 3.0776-0.83729 1.222 0 2.3308 0.47522 1.1088 0.47522 1.9688 1.3351l-1.5162 1.403q-0.52048-0.58837-1.2672-0.92781-0.72415-0.33945-1.5388-0.33945-1.041 0-1.9461 0.56574-0.88255 0.56574-1.4256 1.5388-0.52048 0.95044-0.52048 2.0593 0 1.1315 0.52048 2.1046 0.5431 0.95043 1.4256 1.5162 0.90518 0.56574 1.9461 0.56574 0.81466 0 1.5614-0.33944 0.7694-0.36208 1.3125-0.97307l1.5162 1.3804q-0.88255 0.88255-2.014 1.3804-1.1088 0.49785-2.3761 0.49785z"/>
   <path d="m202.94 151.22q2.3082 0 3.5981 1.3351t1.2899 3.5528v7.083h-2.1951v-1.5841q-0.63362 0.88255-1.6972 1.3804-1.0636 0.47522-2.1951 0.47522-1.8782 0-3.1002-1.0183-1.222-1.0183-1.222-2.7155 0-1.1315 0.611-2.014 0.63363-0.90518 1.6972-1.3804 1.0862-0.49785 2.3761-0.49785 1.6746 0 3.5302 0.63363v-0.36207q0-1.2899-0.70151-2.1498-0.70152-0.88255-2.3082-0.88255-1.3804 0-3.2813 0.97306l-0.83729-1.652q2.3535-1.1767 4.4354-1.1767zm-0.74677 10.477q1.1767 0 2.1724-0.56574 0.9957-0.58837 1.2672-1.6067v-1.5614q-1.4936-0.45259-3.1908-0.45259-1.1994 0-2.0366 0.61099-0.83729 0.611-0.83729 1.5388t0.72414 1.4936q0.74677 0.54311 1.9009 0.54311z"/>
  </g>
  <path d="m32.027 154.03 3.101-4.7776c0.29303-0.4515 0.16457-1.055-0.28689-1.3481-0.3859-0.2504-0.8944-0.1969-1.2197 0.1284l-5.1038 5.1038c-2.1452 2.1451-2.1452 5.6231 0 7.7682l5.1038 5.1038c0.3806 0.3806 0.99764 0.3806 1.3782 0 0.32532-0.3253 0.37882-0.8338 0.12837-1.2196l-3.101-4.7777c-1.1806-1.8189-1.1806-4.1621 0-5.981zm2.3479 3.0548c0 1.5168 1.2296 2.7465 2.7465 2.7465 1.5169 0 2.7465-1.2297 2.7465-2.7465 0-1.5169-1.2296-2.7465-2.7465-2.7465-1.5168 0-2.7465 1.2296-2.7465 2.7465zm-12.197 8.6202 2.5872 5.0743c0.24448 0.4795 0.83139 0.67 1.3109 0.4255 0.40986-0.2089 0.61777-0.6761 0.49869-1.1204l-1.8681-6.972c-0.78517-2.9303-3.7972-4.6693-6.7275-3.884l-6.9719 1.8681c-0.5199 0.1393-0.82841 0.6737-0.68911 1.1936 0.11907 0.4444 0.53269 0.7449 0.9921 0.721l5.6881-0.2967c2.1654-0.1129 4.1947 1.0587 5.1797 2.9906zm-3.8195 0.5059c-1.3136-0.7584-2.9933-0.3083-3.7517 1.0053-0.75842 1.3136-0.30835 2.9933 1.0053 3.7517s2.9933 0.3084 3.7517-1.0053c0.75841-1.3136 0.30834-2.9933-1.0053-3.7516zm-1.367-14.873-5.6881-0.2966c-0.5375-0.028-0.99595 0.385-1.024 0.9225-0.024 0.4594 0.2766 0.873 0.72099 0.9921l6.9719 1.8681c2.9303 0.7852 5.9423-0.9538 6.7275-3.884l1.8681-6.972c0.1393-0.5199-0.16923-1.0543-0.68912-1.1936-0.44436-0.119-0.91149 0.089-1.1204 0.4987l-2.5872 5.0743c-0.98494 1.9318-3.0143 3.1035-5.1797 2.9906zm1.4716-3.5608c1.3136-0.7584 1.7638-2.4382 1.0053-3.7517-0.75848-1.3134-2.4382-1.7637-3.7517-1.0052-1.3136 0.7584-1.7638 2.4381-1.0053 3.7517 0.75847 1.3135 2.4382 1.7637 3.7517 1.0052z" style="paint-order:stroke fill markers"/>
 </g>
</svg>
