<?xml version="1.0" encoding="UTF-8"?>
<svg width="208.71mm" height="40.752mm" version="1.1" viewBox="0 0 208.71 40.752" xmlns="http://www.w3.org/2000/svg" xmlns:cc="http://creativecommons.org/ns#" xmlns:dc="http://purl.org/dc/elements/1.1/" xmlns:rdf="http://www.w3.org/1999/02/22-rdf-syntax-ns#" xmlns:xlink="http://www.w3.org/1999/xlink">
 <defs>
  <clipPath id="clipPath2246-6">
   <path d="m324.38 109.91a161.26 161.26 0 0 1-148.71 168.05 161.26 161.26 0 0 1-172.69-143.3 161.26 161.26 0 0 1 137.74-177.15 161.26 161.26 0 0 1 181.44 132.04z" fill="#fd9f01" style="paint-order:stroke fill markers"/>
  </clipPath>
  <linearGradient id="linearGradient2808" x1="16.005" x2="-1178.4" y1="875.59" y2="875.59" gradientTransform="matrix(.76654 0 0 .76654 481.16 -387.97)" gradientUnits="userSpaceOnUse">
   <stop stop-color="#ffad00" offset="0"/>
   <stop stop-color="#ffad00" stop-opacity="0" offset="1"/>
  </linearGradient>
  <linearGradient id="linearGradient10402" x1="-526.93" x2="-454.48" y1="676.25" y2="946.61" gradientTransform="matrix(1.3309 0 0 1.3309 816.26 -936.76)" gradientUnits="userSpaceOnUse">
   <stop stop-color="#fe5000" offset="0"/>
   <stop stop-color="#ff6900" stop-opacity="0" offset="1"/>
  </linearGradient>
  <linearGradient id="linearGradient2810" x1="-228.3" x2="-48.759" y1="624.42" y2="447.9" gradientTransform="matrix(1.7396 0 0 1.7396 706.98 -881.14)" gradientUnits="userSpaceOnUse">
   <stop stop-color="#ffad00" offset="0"/>
   <stop stop-color="#fe5000" stop-opacity="0" offset="1"/>
  </linearGradient>
 </defs>
 <metadata>
  <rdf:RDF>
   <cc:Work rdf:about="">
    <dc:format>image/svg+xml</dc:format>
    <dc:type rdf:resource="http://purl.org/dc/dcmitype/StillImage"/>
    <dc:title/>
   </cc:Work>
  </rdf:RDF>
 </metadata>
 <g transform="translate(-3.7468 -139.89)">
  <g transform="matrix(.95478 0 0 .95478 212.04 460.77)">
   <g transform="matrix(.13234 0 0 .13234 -218.42 -330.25)" clip-path="url(#clipPath2246-6)">
    <path d="m-122.59-110.08h588.92v458.91h-588.92z" fill="#ff6900" style="paint-order:stroke fill markers"/>
    <path d="m274.14 330.44 266.35 295.67c25.169 27.94 68.223 30.185 96.162 5.0156 23.881-21.514 29.465-56.798 13.394-84.634l-252.15-436.73c-105.98-183.56-340.69-246.45-524.25-140.47l-436.73 252.15c-32.567 18.803-43.725 60.445-24.923 93.012 16.071 27.836 49.42 40.642 79.991 30.717l378.5-122.88c144.1-46.781 302.23-4.4082 403.63 108.15z" fill="url(#linearGradient2808)" style="paint-order:stroke fill markers"/>
    <path d="m433.24 131a270.34 270.34 0 0 1-249.31 281.72 270.34 270.34 0 0 1-289.5-240.23 270.34 270.34 0 0 1 230.91-296.99 270.34 270.34 0 0 1 304.18 221.36z" fill="url(#linearGradient10402)" style="paint-order:stroke fill markers"/>
    <path d="m722.49 52.351a266.95 266.95 0 0 1-246.19 278.19 266.95 266.95 0 0 1-285.88-237.22 266.95 266.95 0 0 1 228.02-293.27 266.95 266.95 0 0 1 300.37 218.59z" fill="url(#linearGradient2810)" style="paint-order:stroke fill markers"/>
   </g>
   <path d="m-189.33-317.46 2.8457-4.3843c0.26891-0.41431 0.15103-0.96816-0.26327-1.2371-0.35413-0.22984-0.82076-0.18074-1.1193 0.11779l-4.6836 4.6836c-1.9686 1.9686-1.9686 5.1602 0 7.1287l4.6836 4.6836c0.34926 0.34927 0.91551 0.34927 1.2648 0 0.29853-0.29851 0.34763-0.76515 0.11779-1.1193l-2.8457-4.3843c-1.0834-1.6691-1.0834-3.8195 0-5.4886zm2.1546 2.8033c0 1.392 1.1284 2.5204 2.5204 2.5204s2.5204-1.1284 2.5204-2.5204c0-1.392-1.1284-2.5204-2.5204-2.5204s-2.5204 1.1284-2.5204 2.5204zm-11.192 7.9105 2.3742 4.6566c0.22435 0.44003 0.76294 0.61487 1.203 0.39053 0.37612-0.19176 0.56691-0.62042 0.45764-1.0282l-1.7143-6.398c-0.72053-2.6891-3.4846-4.2849-6.1737-3.5643l-6.398 1.7143c-0.4771 0.12782-0.76022 0.61822-0.63238 1.0953 0.10927 0.40778 0.48883 0.68362 0.91042 0.66162l5.2198-0.27224c1.9872-0.10362 3.8494 0.97152 4.7533 2.7444zm-3.505 0.46432c-1.2055-0.69597-2.7469-0.28294-3.4428 0.92254-0.69598 1.2054-0.28297 2.7469 0.92252 3.4428 1.2055 0.69597 2.7469 0.28295 3.4428-0.92252 0.69598-1.2055 0.28296-2.7469-0.92252-3.4428zm-1.2545-13.648-5.2199-0.27222c-0.49325-0.0257-0.91396 0.35327-0.93968 0.84652-0.022 0.42161 0.25384 0.80116 0.66164 0.91044l6.398 1.7143c2.6891 0.72052 5.4531-0.87528 6.1736-3.5643l1.7143-6.398c0.12783-0.47708-0.1553-0.96749-0.63239-1.0953-0.40778-0.10927-0.83645 0.0815-1.0282 0.45763l-2.3742 4.6566c-0.90385 1.7728-2.7661 2.848-4.7533 2.7444zm1.3504-3.2677c1.2055-0.69598 1.6186-2.2375 0.92253-3.4428-0.69604-1.2054-2.2375-1.6185-3.4428-0.92251-1.2055 0.69597-1.6186 2.2374-0.92252 3.4428s2.2375 1.6186 3.4428 0.92252z" fill="#fff" style="paint-order:stroke fill markers"/>
  </g>
  <g stroke-linecap="round" stroke-width="3.9877" style="paint-order:stroke fill markers" aria-label="pet informática">
   <g fill="#fe5000">
    <path d="m63.871 154.14q1.5388 0 2.7608 0.79204 1.222 0.7694 1.9009 2.1724 0.70152 1.3804 0.70152 3.1455t-0.70152 3.1681q-0.67888 1.403-1.9009 2.1951-1.222 0.7694-2.7608 0.7694-1.1994 0-2.2177-0.49785-1.0183-0.52048-1.7198-1.4257v5.5442h-3.3039v-15.592h3.3039v1.652q0.70151-0.90518 1.7198-1.403 1.0183-0.52048 2.2177-0.52048zm-0.95044 9.4591q1.3578 0 2.2177-0.92781 0.88255-0.95043 0.88255-2.4214 0-1.4483-0.88255-2.3761-0.85992-0.95044-2.2177-0.95044-1.3125 0-2.1498 0.92781t-0.83729 2.3987 0.83729 2.4214q0.83729 0.92781 2.1498 0.92781z"/>
    <path d="m76.634 163.83q0.79203 0 1.6293-0.31681 0.83729-0.31682 1.403-0.8373l1.8556 1.9009q-0.7694 0.81466-2.1272 1.3125-1.3351 0.49785-2.6477 0.49785-1.7198 0-3.1681-0.79203-1.4257-0.79203-2.263-2.1951-0.83729-1.403-0.83729-3.1681 0-1.7425 0.79203-3.1229 0.81466-1.3804 2.1951-2.1724 1.403-0.79204 3.1002-0.79204 1.8104 0 3.1455 0.83729 1.3351 0.8373 2.0367 2.4214 0.70152 1.5841 0.70152 3.7339h-8.8255q0.2263 1.222 1.0183 1.9688 0.81466 0.72415 1.9914 0.72415zm-0.04526-7.1283q-1.0862 0-1.8782 0.67888-0.79203 0.65626-1.0636 1.7877h5.6347q-0.20367-1.1315-0.90518-1.7877-0.70152-0.67888-1.7877-0.67888z"/>
    <path d="m90.868 165.36q-0.52048 0.45259-1.2446 0.74678-0.72414 0.27155-1.4257 0.27155-1.5614 0-2.5571-0.9957-0.97307-0.99569-0.97307-2.5798v-5.7253h-1.6067v-2.6703h1.6067v-3.2134h3.1908v3.2134h2.5345v2.6703h-2.5345v5.2048q0 0.56574 0.31681 0.95044 0.31681 0.36207 0.79203 0.36207 0.33944 0 0.63363-0.0905 0.29418-0.11315 0.47522-0.29419z"/>
   </g>
   <g fill="#0c2340">
    <path d="m98.901 154.41h2.2177v11.699h-2.2177zm1.1088-1.9461q-0.56574 0-0.97307-0.40733-0.3847-0.40733-0.3847-0.95044t0.3847-0.92781q0.40733-0.40733 0.97307-0.40733 0.54311 0 0.92781 0.40733 0.40733 0.3847 0.40733 0.92781t-0.40733 0.95044q-0.3847 0.40733-0.92781 0.40733z"/>
    <path d="m109.67 154.14q1.2672 0 2.263 0.56574t1.5388 1.6067q0.56574 1.0183 0.56574 2.3535v7.4451h-2.1951v-7.0604q0-1.3125-0.74677-2.1272-0.74678-0.83729-1.9461-0.83729-0.88255 0-1.6293 0.3847-0.74678 0.36207-1.1767 0.9957t-0.42996 1.3804v7.2641h-2.2177v-11.699h2.2177v1.7198q0.52048-0.90518 1.5388-1.4483t2.2177-0.54311z"/>
    <path d="m119.56 154.41h2.7608v1.9009h-2.7608v9.7986h-2.1951v-9.7986h-1.7425v-1.9009h1.7425v-1.403q0-1.403 0.85992-2.2856 0.85992-0.90518 2.2177-0.90518 0.63363 0 1.2446 0.22629 0.63363 0.2263 1.1088 0.611l-0.83729 1.4936q-0.18104-0.18104-0.49785-0.29419-0.31681-0.13577-0.67889-0.13577-0.49784 0-0.85992 0.40733-0.36207 0.3847-0.36207 0.9957z"/>
    <path d="m129.27 166.38q-1.6746 0-3.1002-0.81466-1.403-0.83729-2.2403-2.2403-0.81467-1.4257-0.81467-3.0776 0-1.652 0.81467-3.055 0.83729-1.403 2.2403-2.2177 1.4256-0.83729 3.1002-0.83729 1.652 0 3.055 0.83729 1.4257 0.81467 2.2403 2.2177 0.83729 1.403 0.83729 3.055 0 1.652-0.83729 3.0776-0.81466 1.403-2.2403 2.2403-1.403 0.81466-3.055 0.81466zm0-1.9461q1.041 0 1.9235-0.56574 0.90518-0.56574 1.4256-1.5162 0.54311-0.97307 0.54311-2.1045 0-1.1315-0.54311-2.0819-0.52047-0.97306-1.4256-1.5162-0.88256-0.56574-1.9235-0.56574-1.0636 0-1.9688 0.56574-0.90518 0.54311-1.4483 1.5162-0.52048 0.95044-0.52048 2.0819 0 1.1315 0.52048 2.1045 0.54311 0.95044 1.4483 1.5162t1.9688 0.56574z"/>
    <path d="m139.63 156.7q0.54311-1.1767 1.6972-1.8556 1.1541-0.70152 2.6703-0.70152v1.9461q-1.2672 0-2.263 0.47522-0.99569 0.47522-1.5614 1.3578-0.54311 0.85992-0.54311 1.9688v6.2231h-2.2177v-11.699h2.2177z"/>
    <path d="m158.98 154.14q1.1994 0 2.1724 0.58837 0.97307 0.56574 1.5162 1.6067 0.54311 1.0183 0.54311 2.3308v7.4451h-2.1951v-7.1057q0-1.2899-0.70151-2.1046-0.67889-0.81466-1.7877-0.81466-1.2673 0-2.0593 0.7694-0.79203 0.74678-0.79203 1.9461v7.3093h-2.1951v-7.1057q0-1.2899-0.70152-2.1046-0.67888-0.81466-1.7877-0.81466-1.2672 0-2.0819 0.7694-0.79203 0.74678-0.79203 1.9461v7.3093h-2.2177v-11.699h2.2177v1.6746q0.45259-0.90518 1.3125-1.4257 0.88255-0.52048 2.014-0.52048 1.1315 0 2.0593 0.52048t1.4935 1.4257q0.611-0.90518 1.652-1.4257 1.0636-0.52048 2.3308-0.52048z"/>
    <path d="m170.5 154.14q2.3082 0 3.5981 1.3351 1.2899 1.3351 1.2899 3.5528v7.083h-2.1951v-1.5841q-0.63363 0.88255-1.6972 1.3804-1.0636 0.47522-2.1951 0.47522-1.8782 0-3.1002-1.0183-1.222-1.0183-1.222-2.7155 0-1.1315 0.61099-2.014 0.63363-0.90518 1.6972-1.3804 1.0862-0.49785 2.3761-0.49785 1.6746 0 3.5302 0.63363v-0.36208q0-1.2899-0.70152-2.1498-0.70151-0.88255-2.3082-0.88255-1.3804 0-3.2813 0.97307l-0.8373-1.652q2.3535-1.1767 4.4354-1.1767zm-0.74678 10.477q1.1767 0 2.1724-0.56574 0.9957-0.58836 1.2673-1.6067v-1.5614q-1.4936-0.45259-3.1908-0.45259-1.1994 0-2.0367 0.611t-0.83729 1.5388 0.72414 1.4935q0.74678 0.54311 1.9009 0.54311zm2.9871-14.89 2.1724 0.45259-3.2586 2.8966h-1.6293z"/>
    <path d="m184.12 165.55q-0.47522 0.3847-1.0862 0.611-0.61099 0.22629-1.2446 0.22629-1.3578 0-2.2177-0.88255-0.85992-0.90518-0.85992-2.3082v-6.8794h-1.7651v-1.9009h1.7651v-3.2134h2.1951v3.2134h2.7608v1.9009h-2.7608v6.721q0 0.61099 0.33944 1.0183 0.36208 0.38471 0.85993 0.38471 0.36207 0 0.67888-0.11315 0.33944-0.13578 0.52048-0.31682z"/>
    <path d="m186.05 154.41h2.2177v11.699h-2.2177zm1.1088-1.9461q-0.56574 0-0.97307-0.40733-0.3847-0.40733-0.3847-0.95044t0.3847-0.92781q0.40733-0.40733 0.97307-0.40733 0.54311 0 0.92781 0.40733 0.40733 0.3847 0.40733 0.92781t-0.40733 0.95044q-0.3847 0.40733-0.92781 0.40733z"/>
    <path d="m196.43 166.38q-1.6293 0-3.055-0.83729-1.4256-0.83729-2.263-2.2403-0.83729-1.4257-0.83729-3.055 0-1.6293 0.83729-3.0324 0.85993-1.403 2.263-2.2403 1.4257-0.83729 3.0776-0.83729 1.222 0 2.3308 0.47522 1.1088 0.47522 1.9688 1.3351l-1.5162 1.403q-0.52047-0.58837-1.2672-0.92781-0.72414-0.33944-1.5388-0.33944-1.041 0-1.9461 0.56574-0.88255 0.56573-1.4257 1.5388-0.52048 0.95044-0.52048 2.0593 0 1.1315 0.52048 2.1045 0.54311 0.95044 1.4257 1.5162 0.90518 0.56574 1.9461 0.56574 0.81466 0 1.5614-0.33945 0.7694-0.36207 1.3125-0.97307l1.5162 1.3804q-0.88255 0.88255-2.014 1.3804-1.1088 0.49785-2.3761 0.49785z"/>
    <path d="m207.57 154.14q2.3082 0 3.5981 1.3351t1.2899 3.5528v7.083h-2.1951v-1.5841q-0.63363 0.88255-1.6972 1.3804-1.0636 0.47522-2.1951 0.47522-1.8782 0-3.1002-1.0183-1.222-1.0183-1.222-2.7155 0-1.1315 0.611-2.014 0.63362-0.90518 1.6972-1.3804 1.0862-0.49785 2.3761-0.49785 1.6746 0 3.5302 0.63363v-0.36208q0-1.2899-0.70152-2.1498-0.70151-0.88255-2.3082-0.88255-1.3804 0-3.2813 0.97307l-0.83729-1.652q2.3535-1.1767 4.4354-1.1767zm-0.74678 10.477q1.1767 0 2.1724-0.56574 0.99569-0.58836 1.2672-1.6067v-1.5614q-1.4936-0.45259-3.1908-0.45259-1.1994 0-2.0367 0.611t-0.83729 1.5388 0.72415 1.4935q0.74677 0.54311 1.9009 0.54311z"/>
   </g>
  </g>
 </g>
</svg>
